{"accessors":[{"bufferView":0,"componentType":5123,"count":72,"max":[47],"min":[0],"type":"SCALAR"},{"bufferView":1,"componentType":5126,"count":48,"max":[1.0000004768371582,4.648936748504639,1.2376058101654053],"min":[-1.0000004768371582,-1.0,-1.0000003576278687],"type":"VEC3"},{"bufferView":2,"componentType":5126,"count":48,"max":[1.0,1.0,1.0],"min":[-1.0,-1.0,-1.0],"type":"VEC3"},{"bufferView":3,"componentType":5123,"count":48,"max":[2,0,0,0],"min":[1,0,0,0],"type":"VEC4"},{"bufferView":4,"componentType":5126,"count":48,"max":[1.0,0.0,0.0,0.0],"min":[1.0,0.0,0.0,0.0],"type":"VEC4"},{"bufferView":5,"componentType":5126,"count":3,"max":[1.0,2.842169587787685e-14,3.8941436741879443e-07,0.0,3.4830276263164706e-07,1.0,0.8944271802902222,0.0,1.2563612017402193e-07,0.8944272994995117,1.0,0.0,3.5202742054707414e-08,2.9502580165863037,1.5783770084381104,1.0],"min":[-1.0,-1.4210856409267898e-14,0.0,0.0,0.0,-0.8320500254631042,0.0,0.0,-1.7415139552667824e-07,0.0,-0.44721361994743347,0.0,-1.1785787137341686e-06,-1.493518352508545,-2.9361422061920166,1.0],"type":"MAT4"},{"bufferView":6,"componentType":5126,"count":41,"max":[1.7083333333333333],"min":[0.041666666666666664],"type":"SCALAR"},{"bufferView":7,"componentType":5126,"count":41,"max":[7.545883562443123e-08,0.5276236534118652,0.9994815587997437,3.983447172117849e-08],"min":[6.413383601966416e-08,-0.4718579947948456,0.8494782447814941,-3.5624296401692845e-08],"type":"VEC4"},{"bufferView":8,"componentType":5126,"count":81,"max":[3.375],"min":[0.041666666666666664],"type":"SCALAR"},{"bufferView":9,"componentType":5126,"count":81,"max":[0.48791342973709106,0.8506508469581604,0.525731086730957,0.3015470504760742],"min":[6.045645761787455e-08,-0.8492550253868103,-0.524868369102478,6.32193533078862e-08],"type":"VEC4"}],"animations":[{"channels":[{"sampler":0,"target":{"node":5,"path":"rotation"}}],"name":"upper","samplers":[{"input":8,"interpolation":"LINEAR","output":9}]},{"channels":[{"sampler":0,"target":{"node":6,"path":"rotation"}}],"name":"lower","samplers":[{"input":6,"interpolation":"LINEAR","output":7}]}],"asset":{"generator":"Khronos Blender glTF 2.0 exporter","version":"2.0"},"bufferViews":[{"buffer":0,"byteLength":144,"byteOffset":0,"target":34963},{"buffer":0,"byteLength":576,"byteOffset":144,"target":34962},{"buffer":0,"byteLength":576,"byteOffset":720,"target":34962},{"buffer":0,"byteLength":384,"byteOffset":1296,"target":34962},{"buffer":0,"byteLength":768,"byteOffset":1680,"target":34962},{"buffer":0,"byteLength":192,"byteOffset":2448},{"buffer":0,"byteLength":164,"byteOffset":2640},{"buffer":0,"byteLength":656,"byteOffset":2804},{"buffer":0,"byteLength":324,"byteOffset":3460},{"buffer":0,"byteLength":1296,"byteOffset":3784}],"buffers":[{"byteLength":5080,"uri":"data:application/octet-stream;base64,"}],"materials":[{"name":"Material","pbrMetallicRoughness":{"baseColorFactor":[0.6400000190734865,0.6400000190734865,0.6400000190734865,1.0],"metallicFactor":0.0}}],"meshes":[{"name":"Cube","primitives":[{"attributes":{"JOINTS_0":3,"NORMAL":2,"POSITION":1,"WEIGHTS_0":4},"indices":0,"material":0}]}],"nodes":[{"children":[2,4],"name":"Armature"},{"name":"Camera","rotation":[0.483536034822464,0.33687159419059753,-0.20870360732078552,0.7804827094078064],"translation":[7.481131553649902,5.34366512298584,6.5076398849487305]},{"mesh":0,"name":"Cube","skin":0},{"name":"Lamp","rotation":[0.16907575726509094,0.7558802962303162,-0.27217137813568115,0.570947527885437],"scale":[1.0,1.0,0.9999999403953552],"translation":[4.076245307922363,5.903861999511719,-1.0054539442062378]},{"children":[5,6],"name":"Armature_Bone","translation":[-3.5202742054707414e-08,1.493518352508545,-1.5783770084381104]},{"name":"Armature_Bone.001","rotation":[0.48791319131851196,-0.6968123912811279,-0.43065378069877625,0.3015468716621399],"scale":[0.9999999403953552,0.9999998807907104,1.0],"translation":[0.0,1.0,0.0]},{"name":"Armature_Bone.002","rotation":[6.413383601966416e-08,0.5276236534118652,0.8494782447814941,3.983447172117849e-08],"scale":[1.0,1.0000001192092896,1.0000003576278687],"translation":[0.0,1.0,0.0]}],"scene":0,"scenes":[{"name":"Scene","nodes":[0,3,1]}],"skins":[{"inverseBindMatrices":5,"joints":[4,5,6],"skeleton":0}]}
